<svg width="24" height="24" viewBox="0 0 24 24" fill="none" xmlns="http://www.w3.org/2000/svg">
<path d="M18.2065 15.4915C17.9352 15.4401 17.6736 15.6185 17.6223 15.8898C17.571 16.1611 17.7493 16.4227 18.0206 16.474L18.2065 15.4915ZM8.0811 16.2781C8.35491 16.2422 8.54779 15.9912 8.51193 15.7174C8.47606 15.4436 8.22503 15.2507 7.95123 15.2866L8.0811 16.2781ZM6.18999 4.73792C5.91385 4.73792 5.68999 4.96177 5.68999 5.23792C5.68999 5.51406 5.91385 5.73792 6.18999 5.73792V4.73792ZM12.191 15.4989C12.191 15.7751 12.4149 15.9989 12.691 15.9989C12.9672 15.9989 13.191 15.7751 13.191 15.4989H12.191ZM12.3453 16.0267C12.1458 16.2177 12.1389 16.5342 12.3298 16.7337C12.5208 16.9331 12.8373 16.9401 13.0368 16.7491L12.3453 16.0267ZM15.8229 14.0821C16.0224 13.8912 16.0293 13.5747 15.8384 13.3752C15.6474 13.1757 15.3309 13.1688 15.1314 13.3597L15.8229 14.0821ZM10.2506 13.3597C10.0511 13.1688 9.73462 13.1757 9.54367 13.3752C9.35272 13.5747 9.35964 13.8912 9.55912 14.0821L10.2506 13.3597ZM12.3453 16.7491C12.5448 16.9401 12.8613 16.9331 13.0522 16.7337C13.2432 16.5342 13.2362 16.2177 13.0368 16.0267L12.3453 16.7491ZM6.18999 5.73792C6.46613 5.73792 6.68999 5.51406 6.68999 5.23792C6.68999 4.96177 6.46613 4.73792 6.18999 4.73792V5.73792ZM4.05572 4.73792C3.77957 4.73792 3.55572 4.96177 3.55572 5.23792C3.55572 5.51406 3.77957 5.73792 4.05572 5.73792V4.73792ZM18.0206 16.474C19.0144 16.662 19.7962 16.8938 20.3169 17.1427C20.5783 17.2676 20.7479 17.3847 20.8454 17.482C20.9415 17.578 20.9324 17.6172 20.9324 17.6033H21.9324C21.9324 17.2625 21.7616 16.9836 21.5519 16.7743C21.3435 16.5663 21.0631 16.391 20.7481 16.2404C20.1156 15.9382 19.2381 15.6866 18.2065 15.4915L18.0206 16.474ZM20.9324 17.6033C20.9324 17.5918 20.9395 17.6199 20.8744 17.6938C20.8065 17.7708 20.6836 17.869 20.4845 17.9783C20.0868 18.1966 19.4782 18.4091 18.6833 18.5936C17.1015 18.9609 14.8912 19.1927 12.4324 19.1927L12.4324 20.1927C14.9441 20.1927 17.2338 19.9567 18.9094 19.5677C19.7432 19.3742 20.4526 19.1365 20.9657 18.8549C21.222 18.7142 21.4527 18.55 21.6246 18.355C21.7993 18.1568 21.9324 17.9032 21.9324 17.6033H20.9324ZM12.4324 19.1927C9.97353 19.1927 7.76326 18.9609 6.18148 18.5936C5.38659 18.4091 4.77796 18.1966 4.38021 17.9783C4.18113 17.869 4.05821 17.7708 3.99031 17.6938C3.9252 17.6199 3.93237 17.5918 3.93237 17.6033H2.93237C2.93237 17.9032 3.06547 18.1568 3.24014 18.355C3.41201 18.55 3.64272 18.7142 3.89906 18.8549C4.41216 19.1365 5.12155 19.3742 5.95534 19.5677C7.63092 19.9567 9.92065 20.1927 12.4324 20.1927L12.4324 19.1927ZM3.93237 17.6033C3.93237 17.6205 3.92124 17.5587 4.08324 17.4242C4.24071 17.2934 4.50152 17.1472 4.87947 17.0002C5.63056 16.708 6.73222 16.4548 8.0811 16.2781L7.95123 15.2866C6.56386 15.4683 5.37362 15.7349 4.51689 16.0682C4.09091 16.234 3.71883 16.427 3.44437 16.6549C3.17445 16.879 2.93237 17.1954 2.93237 17.6033H3.93237ZM6.18999 5.73792C9.52509 5.73792 12.191 8.32056 12.191 11.4609H13.191C13.191 7.72753 10.0357 4.73792 6.18999 4.73792V5.73792ZM12.191 11.4609V15.4989H13.191V11.4609H12.191ZM13.0368 16.7491L15.8229 14.0821L15.1314 13.3597L12.3453 16.0267L13.0368 16.7491ZM9.55912 14.0821L12.3453 16.7491L13.0368 16.0267L10.2506 13.3597L9.55912 14.0821ZM6.18999 4.73792L4.05572 4.73792V5.73792L6.18999 5.73792V4.73792Z" fill="#3B3B3B"/>
</svg>
