<svg width="24" height="24" viewBox="0 0 24 24" fill="none" xmlns="http://www.w3.org/2000/svg">
<mask id="path-2-inside-1" fill="white">
<path fill-rule="evenodd" clip-rule="evenodd" d="M6.55059 14.122C6.55065 14.3981 6.77455 14.6219 7.05069 14.6219C7.32683 14.6218 7.55065 14.3979 7.55059 14.1218L7.54942 8.25673L16.5965 17.3038C16.7918 17.4991 17.1084 17.4991 17.3036 17.3038C17.4989 17.1086 17.4989 16.792 17.3036 16.5967L8.2564 7.5495L14.1223 7.55009C14.3985 7.55012 14.6223 7.32628 14.6224 7.05014C14.6224 6.774 14.3986 6.55012 14.1224 6.55009L7.04923 6.54938C7.04918 6.54938 7.04913 6.54938 7.04908 6.54938C6.98133 6.5494 6.91672 6.56288 6.85781 6.58731C6.79883 6.61171 6.74357 6.64789 6.69562 6.69583C6.64769 6.74376 6.61152 6.799 6.58712 6.85797C6.586 6.86068 6.5849 6.8634 6.58382 6.86614C6.56146 6.92287 6.54918 6.98467 6.54918 7.04933C6.54918 7.04966 6.54918 7.04998 6.54918 7.05031L6.55059 14.122Z"/>
</mask>
<path d="M7.05069 14.6219L7.05089 15.6219L7.05089 15.6219L7.05069 14.6219ZM6.55059 14.122L7.55059 14.1218L7.55059 14.1218L6.55059 14.122ZM7.55059 14.1218L6.55059 14.122L6.55059 14.122L7.55059 14.1218ZM7.54942 8.25673L8.25652 7.54962C7.9705 7.2636 7.54033 7.17806 7.16664 7.33289C6.79295 7.48772 6.54934 7.85243 6.54942 8.25693L7.54942 8.25673ZM8.2564 7.5495L8.2565 6.5495C7.85202 6.54946 7.48735 6.79309 7.33254 7.16677C7.17774 7.54046 7.26329 7.9706 7.5493 8.25661L8.2564 7.5495ZM14.1223 7.55009L14.1224 6.55009L14.1223 7.55009ZM14.6224 7.05014L15.6224 7.05024L15.6224 7.05024L14.6224 7.05014ZM14.1224 6.55009L14.1225 5.55009L14.1224 6.55009ZM7.04923 6.54938L7.04933 5.54938L7.04923 5.54938V6.54938ZM7.04908 6.54938V5.54938L7.04888 5.54938L7.04908 6.54938ZM6.85781 6.58731L7.24008 7.51136L7.24081 7.51106L6.85781 6.58731ZM6.58712 6.85797L7.51086 7.24099L7.51114 7.24033L6.58712 6.85797ZM6.58382 6.86614L7.51418 7.23279L7.51419 7.23276L6.58382 6.86614ZM6.54918 7.04933L5.54918 7.04923L5.54918 7.04933H6.54918ZM6.54918 7.05031L7.54918 7.05011L7.54917 7.0472L6.54918 7.05031ZM7.05049 13.6219C7.32663 13.6218 7.55054 13.8456 7.55059 14.1218L5.55059 14.1222C5.55076 14.9506 6.22246 15.622 7.05089 15.6219L7.05049 13.6219ZM6.55059 14.122C6.55053 13.8458 6.77435 13.6219 7.05049 13.6219L7.05089 15.6219C7.87932 15.6217 8.55076 14.95 8.55059 14.1216L6.55059 14.122ZM6.54942 8.25693L6.55059 14.122L8.55059 14.1216L8.54942 8.25653L6.54942 8.25693ZM6.84231 8.96384L15.8894 18.011L17.3036 16.5967L8.25652 7.54962L6.84231 8.96384ZM15.8894 18.011C16.4752 18.5967 17.425 18.5967 18.0107 18.011L16.5965 16.5967C16.7918 16.4015 17.1084 16.4015 17.3036 16.5967L15.8894 18.011ZM18.0107 18.011C18.5965 17.4252 18.5965 16.4754 18.0107 15.8896L16.5965 17.3038C16.4013 17.1086 16.4013 16.792 16.5965 16.5967L18.0107 18.011ZM18.0107 15.8896L8.96351 6.8424L7.5493 8.25661L16.5965 17.3038L18.0107 15.8896ZM8.2563 8.5495L14.1222 8.55009L14.1224 6.55009L8.2565 6.5495L8.2563 8.5495ZM14.1222 8.55009C14.9506 8.55017 15.6223 7.87867 15.6224 7.05024L13.6224 7.05004C13.6224 6.7739 13.8463 6.55006 14.1224 6.55009L14.1222 8.55009ZM15.6224 7.05024C15.6224 6.22181 14.9509 5.55017 14.1225 5.55009L14.1223 7.55009C13.8462 7.55006 13.6223 7.32618 13.6224 7.05004L15.6224 7.05024ZM14.1225 5.55009L7.04933 5.54938L7.04913 7.54938L14.1223 7.55009L14.1225 5.55009ZM7.04923 5.54938L7.04908 5.54938V7.54938L7.04923 7.54938V5.54938ZM7.24081 7.51106C7.1805 7.53607 7.11518 7.54937 7.04928 7.54938L7.04888 5.54938C6.84747 5.54942 6.65295 5.5897 6.4748 5.66356L7.24081 7.51106ZM6.47553 5.66326C6.2972 5.73704 6.13105 5.84619 5.98852 5.98872L7.40273 7.40294C7.35609 7.44958 7.30045 7.48639 7.24008 7.51136L6.47553 5.66326ZM5.98852 5.98872C5.84603 6.13121 5.73689 6.29732 5.66311 6.47561L7.51114 7.24033C7.48616 7.30069 7.44936 7.35631 7.40273 7.40294L5.98852 5.98872ZM5.66339 6.47494C5.66002 6.48307 5.6567 6.49126 5.65345 6.49952L7.51419 7.23276C7.51309 7.23554 7.51198 7.23829 7.51086 7.24099L5.66339 6.47494ZM7.54918 7.04943C7.54917 7.11227 7.53708 7.17469 7.51418 7.23279L5.65346 6.49949C5.58585 6.67104 5.54919 6.85706 5.54918 7.04923L7.54918 7.04943ZM5.54918 7.04933C5.54918 7.0494 5.54917 7.05128 5.54918 7.05342L7.54917 7.0472C7.54918 7.04869 7.54918 7.04992 7.54918 7.04933H5.54918ZM7.55059 14.1218L7.54918 7.05011L5.54918 7.05051L5.55059 14.1222L7.55059 14.1218Z" fill="#3B3B3B" mask="url(#path-2-inside-1)"/>
</svg>
