<svg width="24" height="24" viewBox="0 0 24 24" fill="none" xmlns="http://www.w3.org/2000/svg">
<mask id="path-2-inside-1" fill="white">
<path fill-rule="evenodd" clip-rule="evenodd" d="M14.0424 15.5774C14.0643 15.3022 14.3053 15.0968 14.5805 15.1188C16.3374 15.2589 17.8674 15.517 18.9715 15.8598C19.5201 16.0301 19.9927 16.23 20.3388 16.4656C20.6661 16.6885 21 17.0278 21 17.5002C21 17.8012 20.8605 18.0513 20.685 18.2419C20.5119 18.4298 20.2808 18.587 20.0253 18.7213C19.5133 18.9903 18.8053 19.2174 17.9724 19.4025C16.2986 19.7744 14.0105 20.0002 11.5 20.0002C8.98946 20.0002 6.70136 19.7744 5.02757 19.4025C4.19474 19.2174 3.48671 18.9903 2.97471 18.7213C2.71923 18.587 2.48807 18.4298 2.31504 18.2419C2.13953 18.0513 2 17.8012 2 17.5002C2 17.0853 2.25999 16.7728 2.53303 16.5591C2.81397 16.3392 3.19448 16.1533 3.63038 15.9938C4.50769 15.6728 5.72698 15.4171 7.14745 15.2455C7.4216 15.2124 7.67069 15.4077 7.70381 15.6819C7.73693 15.956 7.54154 16.2051 7.26739 16.2383C5.88377 16.4054 4.74936 16.6492 3.97398 16.9329C3.58354 17.0758 3.31296 17.2185 3.14939 17.3465C3.04567 17.4277 3.01277 17.4798 3.00296 17.5005C3.00872 17.5121 3.02189 17.5333 3.05066 17.5645C3.1174 17.637 3.23988 17.731 3.43982 17.836C3.83867 18.0456 4.44866 18.2494 5.2445 18.4263C6.82807 18.7782 9.03998 19.0002 11.5 19.0002C13.96 19.0002 16.1719 18.7782 17.7555 18.4263C18.5513 18.2494 19.1613 18.0456 19.5602 17.836C19.7601 17.731 19.8826 17.637 19.9493 17.5645C19.9778 17.5336 19.991 17.5125 19.9969 17.5008C19.9855 17.4766 19.9409 17.4045 19.7761 17.2923C19.5477 17.1368 19.1819 16.9722 18.675 16.8148C17.668 16.5022 16.2184 16.2526 14.501 16.1156C14.2258 16.0936 14.0204 15.8527 14.0424 15.5774ZM20.0012 17.4898C20.0013 17.4898 20.0011 17.4906 20.0005 17.4923C20.0008 17.4907 20.0011 17.4898 20.0012 17.4898ZM2.99881 17.4898C2.99889 17.4898 2.99918 17.4907 2.99946 17.4923C2.99887 17.4906 2.99874 17.4898 2.99881 17.4898ZM2.99931 17.5096C2.99919 17.5103 2.99909 17.5106 2.99908 17.5106L2.99931 17.5096ZM17.1294 4.14645C17.3247 3.95118 17.6413 3.95118 17.8365 4.14645L20.5018 6.81176L20.5035 6.81344C20.5721 6.882 20.6166 6.96551 20.637 7.05348C20.6529 7.1221 20.6542 7.19344 20.6408 7.2625C20.6225 7.35705 20.5767 7.44733 20.5035 7.52055L20.5018 7.52224L17.8365 10.1875C17.6413 10.3828 17.3247 10.3828 17.1294 10.1875C16.9342 9.99228 16.9342 9.6757 17.1294 9.48044L18.9429 7.66699H17.223C14.0623 7.66699 11.5 10.2293 11.5 13.39V13.3901L11.5 16.4331C11.5 16.7093 11.2761 16.9331 11 16.9331C10.7239 16.9331 10.5 16.7093 10.5 16.4331L10.5 13.3901V13.39C10.5 9.67698 13.51 6.66699 17.223 6.66699H18.9429L17.1294 4.85355C16.9342 4.65829 16.9342 4.34171 17.1294 4.14645Z"/>
</mask>
<path d="M3.48599 17.6243C3.5493 17.3555 3.38273 17.0863 3.11395 17.023C2.84516 16.9596 2.57594 17.1262 2.51263 17.395L3.48599 17.6243ZM2.5124 17.396C2.44908 17.6648 2.61565 17.934 2.88444 17.9973C3.15322 18.0606 3.42244 17.8941 3.48576 17.6253L2.5124 17.396ZM3.48576 17.6253L3.48599 17.6243L2.51263 17.395L2.5124 17.396L3.48576 17.6253ZM14.5805 15.1188L14.66 14.1219H14.66L14.5805 15.1188ZM14.0424 15.5774L15.0392 15.6569L15.0392 15.6569L14.0424 15.5774ZM18.9715 15.8598L18.675 16.8148L18.9715 15.8598ZM20.3388 16.4656L19.7761 17.2923L20.3388 16.4656ZM20.685 18.2419L21.4206 18.9193L20.685 18.2419ZM20.0253 18.7213L19.5602 17.836H19.5602L20.0253 18.7213ZM17.9724 19.4025L17.7555 18.4263L17.9724 19.4025ZM5.02757 19.4025L5.2445 18.4263L5.02757 19.4025ZM2.97471 18.7213L3.43982 17.836H3.43982L2.97471 18.7213ZM2.31504 18.2419L1.57941 18.9193H1.57941L2.31504 18.2419ZM2.53303 16.5591L1.91668 15.7716H1.91668L2.53303 16.5591ZM3.63038 15.9938L3.97398 16.9329H3.97398L3.63038 15.9938ZM7.14745 15.2455L7.26739 16.2383L7.14745 15.2455ZM7.26739 16.2383L7.14745 15.2455L7.26739 16.2383ZM3.97398 16.9329L4.31757 17.872L3.97398 16.9329ZM3.14939 17.3465L3.76575 18.134L3.76575 18.134L3.14939 17.3465ZM3.00296 17.5005L2.0994 17.072C1.96813 17.3489 1.971 17.6706 2.10721 17.9451L3.00296 17.5005ZM3.05066 17.5645L3.78629 16.8871L3.78629 16.8871L3.05066 17.5645ZM3.43982 17.836L2.97471 18.7213H2.97471L3.43982 17.836ZM17.7555 18.4263L17.5386 17.4501L17.7555 18.4263ZM19.5602 17.836L19.0951 16.9508H19.0951L19.5602 17.836ZM19.9493 17.5645L20.685 18.2419L20.685 18.2419L19.9493 17.5645ZM19.9969 17.5008L20.8911 17.9484C21.0285 17.674 21.0322 17.3517 20.9013 17.0741L19.9969 17.5008ZM19.7761 17.2923L19.2134 18.1189L19.2134 18.1189L19.7761 17.2923ZM18.675 16.8148L18.3785 17.7699L18.675 16.8148ZM14.501 16.1156L14.4215 17.1124L14.501 16.1156ZM20.0005 17.4923L19.0134 17.3324C18.9302 17.8459 19.2546 18.3374 19.7594 18.4628C20.2642 18.5883 20.7808 18.3058 20.9477 17.8131L20.0005 17.4923ZM2.99946 17.4923L2.05247 17.8136C2.21954 18.3061 2.73615 18.5883 3.24078 18.4628C3.74542 18.3373 4.06966 17.846 3.98662 17.3327L2.99946 17.4923ZM3.98259 17.6917C4.08316 17.1487 3.72446 16.6269 3.18141 16.5264C2.63836 16.4258 2.1166 16.7845 2.01603 17.3275L3.98259 17.6917ZM3.05001 16.5119C2.49845 16.4838 2.02851 16.9081 2.00038 17.4597C1.97224 18.0113 2.39657 18.4812 2.94814 18.5093L3.05001 16.5119ZM17.8365 4.14645L17.1294 4.85355V4.85355L17.8365 4.14645ZM17.1294 4.14645L17.8365 4.85355L17.8365 4.85355L17.1294 4.14645ZM20.5018 6.81176L19.7947 7.51887L19.7964 7.52051L20.5018 6.81176ZM20.5035 6.81344L21.2106 6.10633L21.209 6.10468L20.5035 6.81344ZM20.637 7.05348L19.6629 7.27955L19.6629 7.27958L20.637 7.05348ZM20.6408 7.2625L21.6226 7.45258V7.45258L20.6408 7.2625ZM20.5035 7.52055L21.209 8.22931L21.2106 8.22766L20.5035 7.52055ZM20.5018 7.52224L19.7964 6.81348L19.7947 6.81513L20.5018 7.52224ZM17.1294 10.1875L17.8365 9.48044L17.8365 9.48044L17.1294 10.1875ZM17.1294 9.48044L17.8365 10.1875L17.8365 10.1875L17.1294 9.48044ZM18.9429 7.66699L19.65 8.3741C19.936 8.0881 20.0215 7.65798 19.8667 7.28431C19.712 6.91063 19.3473 6.66699 18.9429 6.66699V7.66699ZM18.9429 6.66699V7.66699C19.3473 7.66699 19.712 7.42335 19.8667 7.04968C20.0215 6.676 19.936 6.24588 19.65 5.95989L18.9429 6.66699ZM17.1294 4.85355L17.8365 4.14645L17.8365 4.14645L17.1294 4.85355ZM14.66 14.1219C13.8342 14.0561 13.1114 14.6721 13.0455 15.4979L15.0392 15.6569C15.0172 15.9322 14.7763 16.1376 14.501 16.1156L14.66 14.1219ZM19.268 14.9047C18.0668 14.5318 16.4564 14.2652 14.66 14.1219L14.501 16.1156C16.2184 16.2526 17.668 16.5022 18.675 16.8148L19.268 14.9047ZM20.9015 15.639C20.4378 15.3233 19.8584 15.088 19.268 14.9047L18.675 16.8148C19.1818 16.9721 19.5476 17.1368 19.7761 17.2923L20.9015 15.639ZM22 17.5002C22 16.514 21.3049 15.9136 20.9015 15.639L19.7761 17.2923C19.8823 17.3646 19.9484 17.4292 19.9823 17.4759C19.9972 17.4965 20.001 17.5071 20.0012 17.5076C20.0013 17.5079 20.0009 17.5066 20.0005 17.5044C20.0003 17.5033 20.0002 17.5023 20.0001 17.5015C20 17.5006 20 17.5001 20 17.5002L22 17.5002ZM21.4206 18.9193C21.7061 18.6092 22 18.1286 22 17.5002L20 17.5002C20 17.4975 20.0004 17.4944 20.0009 17.492C20.0014 17.4899 20.0014 17.4911 19.9992 17.4958C19.9942 17.5067 19.9804 17.5308 19.9493 17.5645L21.4206 18.9193ZM20.4904 19.6065C20.8015 19.4431 21.1413 19.2226 21.4206 18.9193L19.9493 17.5645C19.8825 17.6371 19.76 17.731 19.5602 17.836L20.4904 19.6065ZM18.1894 20.3787C19.0593 20.1853 19.8653 19.9349 20.4904 19.6065L19.5602 17.836C19.1613 18.0456 18.5513 18.2494 17.7555 18.4263L18.1894 20.3787ZM11.5 21.0002C14.0611 21.0002 16.4254 20.7707 18.1894 20.3787L17.7555 18.4263C16.1719 18.7782 13.96 19.0002 11.5 19.0002V21.0002ZM4.81064 20.3787C6.57465 20.7707 8.93893 21.0002 11.5 21.0002V19.0002C9.03998 19.0002 6.82808 18.7782 5.2445 18.4263L4.81064 20.3787ZM2.50961 19.6065C3.1347 19.9349 3.94072 20.1853 4.81064 20.3787L5.2445 18.4263C4.44875 18.2494 3.83872 18.0456 3.43982 17.836L2.50961 19.6065ZM1.57941 18.9193C1.85868 19.2226 2.19848 19.4431 2.50961 19.6065L3.43982 17.836C3.23998 17.731 3.11746 17.6371 3.05066 17.5645L1.57941 18.9193ZM1 17.5002C1 18.1286 1.29387 18.6092 1.57941 18.9193L3.05066 17.5645C3.01961 17.5308 3.00576 17.5067 3.00078 17.4958C2.99859 17.4911 2.99859 17.4899 2.99908 17.492C2.99962 17.4944 3 17.4975 3 17.5002H1ZM1.91668 15.7716C1.54519 16.0624 1 16.6325 1 17.5002H3C3 17.5126 2.99357 17.5135 3.00922 17.4888C3.0296 17.4566 3.07296 17.4064 3.14939 17.3465L1.91668 15.7716ZM3.28679 15.0547C2.80528 15.2309 2.31491 15.4599 1.91668 15.7716L3.14939 17.3465C3.31303 17.2184 3.58368 17.0757 3.97398 16.9329L3.28679 15.0547ZM7.0275 14.2527C5.57016 14.4288 4.26599 14.6964 3.28679 15.0547L3.97398 16.9329C4.74938 16.6492 5.88381 16.4054 7.26739 16.2383L7.0275 14.2527ZM8.69659 15.562C8.59723 14.7395 7.84995 14.1533 7.0275 14.2527L7.26739 16.2383C6.99324 16.2714 6.74415 16.076 6.71103 15.8018L8.69659 15.562ZM7.38733 17.231C8.20978 17.1317 8.79595 16.3844 8.69659 15.562L6.71103 15.8018C6.67791 15.5277 6.8733 15.2786 7.14745 15.2455L7.38733 17.231ZM4.31757 17.872C4.99102 17.6257 6.04053 17.3937 7.38733 17.231L7.14745 15.2455C5.72702 15.4171 4.50771 15.6728 3.63038 15.9938L4.31757 17.872ZM3.76575 18.134C3.81184 18.0979 3.9724 17.9983 4.31757 17.872L3.63038 15.9938C3.19467 16.1532 2.81407 16.3391 2.53303 16.5591L3.76575 18.134ZM3.90652 17.929C3.8658 18.0148 3.82191 18.0721 3.79533 18.1027C3.76864 18.1333 3.75425 18.143 3.76575 18.134L2.53303 16.5591C2.35551 16.698 2.19791 16.8643 2.0994 17.072L3.90652 17.929ZM3.78629 16.8871C3.80431 16.9067 3.85235 16.9625 3.89871 17.0559L2.10721 17.9451C2.16509 18.0617 2.23947 18.1599 2.31504 18.2419L3.78629 16.8871ZM3.90492 16.9508C3.83828 16.9157 3.79754 16.8893 3.77652 16.8743C3.75363 16.858 3.76203 16.8608 3.78629 16.8871L2.31503 18.2419C2.48816 18.4299 2.71941 18.5871 2.97471 18.7213L3.90492 16.9508ZM5.46143 17.4501C4.70249 17.2814 4.19058 17.1008 3.90492 16.9508L2.97471 18.7213C3.48676 18.9903 4.19483 19.2174 5.02757 19.4025L5.46143 17.4501ZM11.5 18.0002C9.0905 18.0002 6.95478 17.7819 5.46143 17.4501L5.02757 19.4025C6.70136 19.7744 8.98946 20.0002 11.5 20.0002V18.0002ZM17.5386 17.4501C16.0452 17.7819 13.9095 18.0002 11.5 18.0002V20.0002C14.0105 20.0002 16.2986 19.7744 17.9724 19.4025L17.5386 17.4501ZM19.0951 16.9508C18.8094 17.1008 18.2975 17.2814 17.5386 17.4501L17.9724 19.4025C18.8052 19.2174 19.5132 18.9903 20.0253 18.7213L19.0951 16.9508ZM19.2137 16.8871C19.238 16.8608 19.2464 16.858 19.2235 16.8743C19.2025 16.8893 19.1617 16.9157 19.0951 16.9508L20.0253 18.7213C20.2806 18.5871 20.5118 18.4299 20.685 18.2419L19.2137 16.8871ZM19.1026 17.0532C19.1485 16.9615 19.1958 16.9066 19.2137 16.8872L20.685 18.2419C20.7599 18.1605 20.8335 18.0635 20.8911 17.9484L19.1026 17.0532ZM19.2134 18.1189C19.2935 18.1735 19.1842 18.1219 19.0925 17.9275L20.9013 17.0741C20.7867 16.8314 20.5883 16.6355 20.3388 16.4656L19.2134 18.1189ZM18.3785 17.7699C18.8439 17.9143 19.1028 18.0436 19.2134 18.1189L20.3388 16.4656C19.9926 16.23 19.5199 16.03 18.9715 15.8598L18.3785 17.7699ZM14.4215 17.1124C16.0994 17.2463 17.4687 17.4874 18.3785 17.7699L18.9715 15.8598C17.8674 15.517 16.3374 15.2589 14.5805 15.1188L14.4215 17.1124ZM13.0455 15.4979C12.9797 16.3237 13.5957 17.0466 14.4215 17.1124L14.5805 15.1188C14.8558 15.1407 15.0612 15.3817 15.0392 15.6569L13.0455 15.4979ZM20.0449 18.4888C19.4566 18.5146 19.1721 18.0765 19.0964 17.9155C19.0214 17.7562 19.0086 17.6171 19.0052 17.5797C18.9962 17.4796 19.005 17.401 19.007 17.3829C19.0131 17.3261 19.0228 17.2825 19.0265 17.2665C19.0361 17.225 19.0464 17.1921 19.0534 17.1716L20.9477 17.8131C20.9552 17.7909 20.966 17.7567 20.9757 17.7144C20.9795 17.698 20.9893 17.6541 20.9954 17.597C20.9974 17.5787 21.0062 17.5001 20.9972 17.4C20.9938 17.3625 20.981 17.2235 20.906 17.0641C20.8303 16.9031 20.5457 16.465 19.9575 16.4907L20.0449 18.4888ZM20.9877 17.6522C20.9835 17.6777 20.9768 17.713 20.9654 17.7546C20.9606 17.7721 20.9497 17.8103 20.9312 17.8573C20.9238 17.8759 20.9021 17.9301 20.8645 17.9945C20.8478 18.0231 20.8049 18.094 20.7333 18.171C20.6967 18.2103 20.6314 18.2744 20.536 18.3348C20.4427 18.3938 20.2737 18.4788 20.0449 18.4888L19.9575 16.4907C19.5366 16.5092 19.2983 16.7772 19.2691 16.8086C19.1974 16.8856 19.1546 16.9566 19.1378 16.9852C19.1002 17.0496 19.0784 17.1039 19.071 17.1226C19.0524 17.1698 19.0414 17.2084 19.0365 17.2263C19.0248 17.2687 19.0178 17.3053 19.0134 17.3324L20.9877 17.6522ZM2.93685 18.4879C2.71202 18.4739 2.54709 18.3884 2.4565 18.33C2.36343 18.2699 2.29965 18.2067 2.26377 18.1678C2.19344 18.0916 2.1513 18.0216 2.13468 17.993C2.09744 17.9291 2.07591 17.8753 2.06856 17.8566C2.0501 17.8098 2.03925 17.7717 2.03446 17.7542C2.02313 17.7127 2.0164 17.6775 2.01229 17.652L3.98662 17.3327C3.98224 17.3055 3.97523 17.269 3.96366 17.2267C3.95876 17.2088 3.94781 17.1703 3.92925 17.1233C3.92186 17.1045 3.9003 17.0506 3.86303 16.9866C3.84639 16.9581 3.80423 16.8881 3.73389 16.8118C3.70503 16.7805 3.47313 16.5173 3.06078 16.4917L2.93685 18.4879ZM3.94644 17.1711C3.95352 17.1919 3.96405 17.2253 3.97367 17.2673C3.97738 17.2835 3.98719 17.3274 3.99325 17.3847C3.99518 17.403 4.00391 17.4824 3.9944 17.5835C3.99086 17.6211 3.97743 17.7625 3.89966 17.9239C3.85813 18.0101 3.77246 18.1564 3.60824 18.2826C3.42378 18.4244 3.18697 18.5034 2.93685 18.4879L3.06078 16.4917C2.47311 16.4552 2.17898 16.8875 2.09794 17.0557C2.02017 17.2171 2.00673 17.3586 2.00319 17.3962C1.99367 17.4973 2.00241 17.5768 2.00435 17.5952C2.01043 17.6527 2.0203 17.6969 2.02411 17.7136C2.03392 17.7564 2.04481 17.791 2.05247 17.8136L3.94644 17.1711ZM2.01603 17.3275C2.01862 17.3135 2.02265 17.2935 2.0286 17.2695C2.03103 17.2597 2.03689 17.2366 2.0461 17.2076C2.0494 17.1972 2.06102 17.1607 2.08037 17.1157C2.08758 17.0989 2.11319 17.0394 2.15788 16.9699C2.17798 16.9386 2.23026 16.8601 2.31791 16.7785C2.37639 16.7241 2.63563 16.4908 3.05001 16.5119L2.94814 18.5093C3.36252 18.5305 3.62177 18.2972 3.68025 18.2428C3.7679 18.1612 3.82018 18.0826 3.84028 18.0513C3.88498 17.9818 3.91059 17.9223 3.9178 17.9055C3.93716 17.8605 3.94879 17.824 3.9521 17.8135C3.96134 17.7845 3.96724 17.7612 3.96971 17.7513C3.97574 17.727 3.97988 17.7064 3.98259 17.6917L2.01603 17.3275ZM18.5436 3.43934C17.9578 2.85355 17.0081 2.85355 16.4223 3.43934L17.8365 4.85355C17.6413 5.04882 17.3247 5.04882 17.1294 4.85355L18.5436 3.43934ZM21.2089 6.10465L18.5436 3.43934L17.1294 4.85355L19.7947 7.51886L21.2089 6.10465ZM21.209 6.10468L21.2073 6.103L19.7964 7.52051L19.7981 7.52219L21.209 6.10468ZM21.6111 6.82741C21.5496 6.56259 21.4152 6.31092 21.2106 6.10633L19.7964 7.52055C19.7289 7.45307 19.6835 7.36843 19.6629 7.27955L21.6111 6.82741ZM21.6226 7.45258C21.6626 7.24602 21.6588 7.03289 21.6111 6.82738L19.6629 7.27958C19.647 7.21131 19.6458 7.14085 19.659 7.07242L21.6226 7.45258ZM21.2106 8.22766C21.4293 8.00898 21.5675 7.73685 21.6226 7.45258L19.659 7.07242C19.6775 6.97724 19.7242 6.88568 19.7964 6.81345L21.2106 8.22766ZM21.2073 8.23099L21.209 8.22931L19.7981 6.8118L19.7964 6.81348L21.2073 8.23099ZM18.5436 10.8947L21.2089 8.22934L19.7947 6.81513L17.1294 9.48044L18.5436 10.8947ZM16.4223 10.8947C17.0081 11.4804 17.9578 11.4804 18.5436 10.8947L17.1294 9.48044C17.3247 9.28518 17.6413 9.28518 17.8365 9.48044L16.4223 10.8947ZM16.4223 8.77333C15.8365 9.35912 15.8365 10.3089 16.4223 10.8947L17.8365 9.48044C18.0318 9.6757 18.0318 9.99228 17.8365 10.1875L16.4223 8.77333ZM18.2358 6.95989L16.4223 8.77333L17.8365 10.1875L19.65 8.3741L18.2358 6.95989ZM17.223 8.66699H18.9429V6.66699H17.223V8.66699ZM12.5 13.39C12.5 10.7816 14.6146 8.66699 17.223 8.66699V6.66699C13.51 6.66699 10.5 9.67698 10.5 13.39H12.5ZM12.5 13.3901V13.39H10.5V13.3901H12.5ZM12.5 16.4331L12.5 13.3901H10.5L10.5 16.4331H12.5ZM11 17.9331C11.8284 17.9331 12.5 17.2616 12.5 16.4331H10.5C10.5 16.157 10.7239 15.9331 11 15.9331V17.9331ZM9.5 16.4331C9.5 17.2616 10.1716 17.9331 11 17.9331V15.9331C11.2761 15.9331 11.5 16.157 11.5 16.4331H9.5ZM9.5 13.3901V16.4331H11.5L11.5 13.3901H9.5ZM9.5 13.39V13.3901H11.5V13.39H9.5ZM17.223 5.66699C12.9577 5.66699 9.5 9.1247 9.5 13.39H11.5C11.5 10.2293 14.0623 7.66699 17.223 7.66699V5.66699ZM18.9429 5.66699L17.223 5.66699V7.66699H18.9429V5.66699ZM16.4223 5.56066L18.2358 7.3741L19.65 5.95989L17.8365 4.14645L16.4223 5.56066ZM16.4223 3.43934C15.8365 4.02513 15.8365 4.97487 16.4223 5.56066L17.8365 4.14645C18.0318 4.34171 18.0318 4.65829 17.8365 4.85355L16.4223 3.43934Z" fill="#3B3B3B" mask="url(#path-2-inside-1)"/>
</svg>
