<svg width="24" height="24" viewBox="0 0 24 24" fill="none" xmlns="http://www.w3.org/2000/svg">
<mask id="path-2-inside-1" fill="white">
<path fill-rule="evenodd" clip-rule="evenodd" d="M9.64749 17.3536C9.8428 17.5488 10.1594 17.5488 10.3546 17.3535C10.5498 17.1582 10.5498 16.8416 10.3545 16.6464L6.20642 12.5L19.001 12.5C19.2771 12.5 19.501 12.2761 19.501 12C19.501 11.7239 19.2771 11.5 19.001 11.5L6.20625 11.5L10.3545 7.35259C10.5498 7.15735 10.5498 6.84076 10.3546 6.64548C10.1593 6.4502 9.84274 6.45017 9.64746 6.64541L4.64546 11.6464C4.64542 11.6464 4.64539 11.6465 4.64535 11.6465C4.59746 11.6944 4.56131 11.7497 4.53693 11.8086C4.51247 11.8675 4.49898 11.9322 4.49898 12C4.49898 12.0678 4.51247 12.1324 4.53691 12.1914C4.53803 12.1941 4.53918 12.1968 4.54035 12.1995C4.56465 12.2554 4.59967 12.3078 4.64539 12.3535C4.64562 12.3537 4.64585 12.354 4.64608 12.3542L9.64749 17.3536Z"/>
</mask>
<path d="M10.3546 17.3535L11.0618 18.0604L11.0618 18.0604L10.3546 17.3535ZM9.64749 17.3536L10.3545 16.6464V16.6464L9.64749 17.3536ZM10.3545 16.6464L9.64749 17.3536L9.6475 17.3536L10.3545 16.6464ZM6.20642 12.5V11.5C5.80193 11.5 5.43726 11.7437 5.28251 12.1174C5.12775 12.4911 5.21338 12.9213 5.49946 13.2072L6.20642 12.5ZM6.20625 11.5L5.49922 10.7928C5.21318 11.0788 5.12759 11.5089 5.28236 11.8826C5.43712 12.2563 5.80177 12.5 6.20625 12.5V11.5ZM10.3545 7.35259L9.64746 6.64541L10.3545 7.35259ZM10.3546 6.64548L11.0617 5.93845L11.0617 5.93844L10.3546 6.64548ZM9.64746 6.64541L8.94042 5.93823L9.64746 6.64541ZM4.64546 11.6464L3.93842 10.9392L3.93835 10.9393L4.64546 11.6464ZM4.64535 11.6465L3.93825 10.9394L3.93811 10.9396L4.64535 11.6465ZM4.53693 11.8086L5.46064 12.1917L5.46094 12.191L4.53693 11.8086ZM4.53691 12.1914L5.46093 11.809L5.46065 11.8084L4.53691 12.1914ZM4.54035 12.1995L5.45747 11.8009L5.45746 11.8009L4.54035 12.1995ZM4.64539 12.3535L3.93821 13.0606L3.93828 13.0606L4.64539 12.3535ZM4.64608 12.3542L5.35305 11.647L5.35098 11.6449L4.64608 12.3542ZM9.64735 16.6465C9.84258 16.4512 10.1592 16.4512 10.3545 16.6464L8.94053 18.0609C9.52643 18.6465 10.4762 18.6464 11.0618 18.0604L9.64735 16.6465ZM9.6475 17.3536C9.45219 17.1584 9.45213 16.8418 9.64735 16.6465L11.0618 18.0604C11.6475 17.4745 11.6473 16.5248 11.0614 15.9391L9.6475 17.3536ZM5.49946 13.2072L9.64749 17.3536L11.0614 15.9391L6.91339 11.7928L5.49946 13.2072ZM6.20642 13.5L19.001 13.5V11.5L6.20642 11.5V13.5ZM19.001 13.5C19.8294 13.5 20.501 12.8284 20.501 12H18.501C18.501 11.7239 18.7248 11.5 19.001 11.5V13.5ZM20.501 12C20.501 11.1716 19.8294 10.5 19.001 10.5V12.5C18.7248 12.5 18.501 12.2761 18.501 12H20.501ZM19.001 10.5L6.20625 10.5V12.5L19.001 12.5V10.5ZM6.91329 12.2072L11.0615 8.05977L9.64746 6.64541L5.49922 10.7928L6.91329 12.2072ZM11.0615 8.05977C11.6474 7.47404 11.6475 6.52429 11.0617 5.93845L9.64739 7.35252C9.45215 7.15724 9.45218 6.84066 9.64746 6.64541L11.0615 8.05977ZM11.0617 5.93844C10.476 5.3526 9.52627 5.3525 8.94042 5.93823L10.3545 7.35259C10.1592 7.54783 9.84263 7.5478 9.64739 7.35252L11.0617 5.93844ZM8.94042 5.93823L3.93842 10.9392L5.35249 12.3536L10.3545 7.35259L8.94042 5.93823ZM3.93835 10.9393L3.93825 10.9394L5.35246 12.3536L5.35256 12.3535L3.93835 10.9393ZM5.46094 12.191C5.43597 12.2513 5.39919 12.3069 5.3526 12.3535L3.93811 10.9396C3.79572 11.082 3.68665 11.248 3.61291 11.4262L5.46094 12.191ZM3.61321 11.4255C3.53928 11.6038 3.49898 11.7984 3.49898 12H5.49898C5.49898 12.066 5.48566 12.1313 5.46064 12.1917L3.61321 11.4255ZM3.49898 12C3.49898 12.2015 3.53926 12.3961 3.61316 12.5744L5.46065 11.8084C5.48567 11.8687 5.49898 11.9341 5.49898 12H3.49898ZM3.61289 12.5737C3.61625 12.5818 3.6197 12.59 3.62324 12.5981L5.45746 11.8009C5.45865 11.8036 5.45981 11.8063 5.46093 11.809L3.61289 12.5737ZM5.35256 11.6465C5.39699 11.6909 5.43258 11.7436 5.45747 11.8009L3.62322 12.5981C3.69672 12.7672 3.80234 12.9247 3.93821 13.0606L5.35256 11.6465ZM3.93828 13.0606C3.93833 13.0607 3.93966 13.062 3.94117 13.0635L5.35098 11.6449C5.35204 11.646 5.35291 11.6468 5.35249 11.6464L3.93828 13.0606ZM10.3545 16.6464L5.35304 11.647L3.93911 13.0615L8.94053 18.0609L10.3545 16.6464Z" fill="#3B3B3B" mask="url(#path-2-inside-1)"/>
</svg>
