<svg width="24" height="24" viewBox="0 0 24 24" fill="none" xmlns="http://www.w3.org/2000/svg">
<mask id="path-2-inside-1" fill="white">
<path fill-rule="evenodd" clip-rule="evenodd" d="M6.64589 9.64701C6.45066 9.84231 6.45073 10.1589 6.64603 10.3541C6.84133 10.5493 7.15791 10.5493 7.35314 10.354L11.4995 6.20594V19.0005C11.4995 19.2766 11.7234 19.5005 11.9995 19.5005C12.2757 19.5005 12.4995 19.2766 12.4995 19.0005V6.20577L16.6469 10.354C16.8422 10.5493 17.1587 10.5493 17.354 10.3541C17.5493 10.1588 17.5493 9.84225 17.3541 9.64697L12.3531 4.64497C12.3531 4.64493 12.353 4.6449 12.353 4.64487C12.3051 4.59697 12.2499 4.56082 12.1909 4.53644C12.132 4.51198 12.0673 4.49849 11.9995 4.49849C11.9317 4.49849 11.8671 4.51198 11.8081 4.53642C11.8054 4.53754 11.8027 4.53869 11.8 4.53986C11.7441 4.56416 11.6917 4.59918 11.646 4.6449C11.6458 4.64513 11.6455 4.64536 11.6453 4.64559L6.64589 9.64701Z"/>
</mask>
<path d="M6.64603 10.3541L5.93906 11.0614L5.93906 11.0614L6.64603 10.3541ZM6.64589 9.64701L7.35314 10.354H7.35314L6.64589 9.64701ZM7.35314 10.354L6.64589 9.64701L6.64589 9.64701L7.35314 10.354ZM11.4995 6.20594H12.4995C12.4995 5.80144 12.2558 5.43678 11.8821 5.28202C11.5084 5.12726 11.0782 5.21289 10.7923 5.49897L11.4995 6.20594ZM12.4995 6.20577L13.2067 5.49873C12.9207 5.21269 12.4906 5.1271 12.1169 5.28187C11.7432 5.43664 11.4995 5.80129 11.4995 6.20577H12.4995ZM16.6469 10.354L17.3541 9.64697L16.6469 10.354ZM17.354 10.3541L18.0611 11.0613L18.0611 11.0613L17.354 10.3541ZM17.3541 9.64697L18.0613 8.93993L17.3541 9.64697ZM12.3531 4.64497L13.0603 3.93793L13.0602 3.93786L12.3531 4.64497ZM12.353 4.64487L13.0601 3.93776L13.06 3.93762L12.353 4.64487ZM12.1909 4.53644L11.8078 5.46015L11.8086 5.46045L12.1909 4.53644ZM11.8081 4.53642L12.1905 5.46044L12.1911 5.46016L11.8081 4.53642ZM11.8 4.53986L12.1986 5.45698L12.1987 5.45697L11.8 4.53986ZM11.646 4.6449L10.939 3.93772L10.9389 3.93779L11.646 4.6449ZM11.6453 4.64559L12.3526 5.35256L12.3546 5.3505L11.6453 4.64559ZM7.353 9.64687C7.54829 9.84209 7.54836 10.1587 7.35314 10.354L5.93864 8.94004C5.35297 9.52594 5.35316 10.4757 5.93906 11.0614L7.353 9.64687ZM6.64589 9.64701C6.84111 9.4517 7.15769 9.45164 7.35299 9.64686L5.93906 11.0614C6.52497 11.647 7.47472 11.6468 8.06039 11.0609L6.64589 9.64701ZM10.7923 5.49897L6.64589 9.64701L8.06038 11.0609L12.2068 6.9129L10.7923 5.49897ZM10.4995 6.20594V19.0005H12.4995V6.20594H10.4995ZM10.4995 19.0005C10.4995 19.8289 11.1711 20.5005 11.9995 20.5005V18.5005C12.2757 18.5005 12.4995 18.7243 12.4995 19.0005H10.4995ZM11.9995 20.5005C12.8279 20.5005 13.4995 19.8289 13.4995 19.0005H11.4995C11.4995 18.7243 11.7234 18.5005 11.9995 18.5005V20.5005ZM13.4995 19.0005V6.20577H11.4995V19.0005H13.4995ZM11.7923 6.9128L15.9397 11.061L17.3541 9.64697L13.2067 5.49873L11.7923 6.9128ZM15.9397 11.061C16.5255 11.6469 17.4752 11.647 18.0611 11.0613L16.647 9.6469C16.8423 9.45166 17.1589 9.45169 17.3541 9.64697L15.9397 11.061ZM18.0611 11.0613C18.6469 10.4755 18.647 9.52578 18.0613 8.93993L16.6469 10.354C16.4517 10.1587 16.4517 9.84214 16.647 9.6469L18.0611 11.0613ZM18.0613 8.93993L13.0603 3.93793L11.6459 5.35201L16.6469 10.354L18.0613 8.93993ZM13.0602 3.93786L13.0601 3.93776L11.6459 5.35197L11.646 5.35208L13.0602 3.93786ZM11.8086 5.46045C11.7482 5.43548 11.6926 5.3987 11.646 5.35211L13.06 3.93762C12.9175 3.79523 12.7515 3.68616 12.5733 3.61243L11.8086 5.46045ZM12.574 3.61273C12.3958 3.5388 12.2011 3.49849 11.9995 3.49849V5.49849C11.9335 5.49849 11.8682 5.48517 11.8078 5.46015L12.574 3.61273ZM11.9995 3.49849C11.798 3.49849 11.6034 3.53877 11.4251 3.61267L12.1911 5.46016C12.1308 5.48518 12.0655 5.49849 11.9995 5.49849V3.49849ZM11.4258 3.6124C11.4177 3.61576 11.4095 3.61921 11.4014 3.62275L12.1987 5.45697C12.1959 5.45816 12.1932 5.45932 12.1905 5.46044L11.4258 3.6124ZM12.353 5.35208C12.3086 5.39651 12.2559 5.43209 12.1986 5.45698L11.4014 3.62274C11.2323 3.69624 11.0749 3.80185 10.939 3.93772L12.353 5.35208ZM10.9389 3.93779C10.9388 3.93784 10.9375 3.93917 10.936 3.94068L12.3546 5.3505C12.3536 5.35155 12.3527 5.35242 12.3531 5.35201L10.9389 3.93779ZM7.35314 10.354L12.3526 5.35256L10.9381 3.93862L5.93864 8.94004L7.35314 10.354Z" fill="#3B3B3B" mask="url(#path-2-inside-1)"/>
</svg>
