<svg width="24" height="24" viewBox="0 0 24 24" fill="none" xmlns="http://www.w3.org/2000/svg">
<mask id="path-2-inside-1" fill="white">
<path fill-rule="evenodd" clip-rule="evenodd" d="M17.3541 14.352C17.5493 14.1567 17.5493 13.8401 17.354 13.6448C17.1587 13.4496 16.8421 13.4497 16.6469 13.645L12.5005 17.793L12.5005 4.99847C12.5005 4.72233 12.2766 4.49847 12.0005 4.49847C11.7243 4.49847 11.5005 4.72233 11.5005 4.99847L11.5005 17.7932L7.35308 13.645C7.15784 13.4497 6.84125 13.4496 6.64597 13.6449C6.45069 13.8401 6.45066 14.1567 6.6459 14.352L11.6469 19.354C11.6469 19.354 11.647 19.3541 11.647 19.3541C11.6949 19.402 11.7501 19.4381 11.8091 19.4625C11.868 19.487 11.9327 19.5005 12.0005 19.5005C12.0683 19.5005 12.1329 19.487 12.1919 19.4625C12.1946 19.4614 12.1973 19.4603 12.2 19.4591C12.2559 19.4348 12.3083 19.3998 12.354 19.3541C12.3542 19.3538 12.3545 19.3536 12.3547 19.3534L17.3541 14.352Z"/>
</mask>
<path d="M17.354 13.6448L18.0609 12.9376L18.0609 12.9376L17.354 13.6448ZM17.3541 14.352L16.6469 13.645H16.6469L17.3541 14.352ZM16.6469 13.645L17.3541 14.352L17.3541 14.352L16.6469 13.645ZM12.5005 17.793H11.5005C11.5005 18.1975 11.7442 18.5622 12.1179 18.7169C12.4916 18.8717 12.9218 18.7861 13.2077 18.5L12.5005 17.793ZM11.5005 17.7932L10.7933 18.5002C11.0793 18.7863 11.5094 18.8719 11.8831 18.7171C12.2568 18.5623 12.5005 18.1977 12.5005 17.7932H11.5005ZM7.35308 13.645L6.6459 14.352L7.35308 13.645ZM6.64597 13.6449L5.93893 12.9377L5.93893 12.9377L6.64597 13.6449ZM6.6459 14.352L5.93872 15.059L6.6459 14.352ZM11.6469 19.354L10.9397 20.061L10.9398 20.0611L11.6469 19.354ZM11.647 19.3541L10.9399 20.0612L10.94 20.0613L11.647 19.3541ZM11.8091 19.4625L12.1922 18.5388L12.1914 18.5385L11.8091 19.4625ZM12.1919 19.4625L11.8095 18.5385L11.8089 18.5388L12.1919 19.4625ZM12.2 19.4591L11.8014 18.542L11.8013 18.542L12.2 19.4591ZM12.354 19.3541L13.061 20.0612L13.0611 20.0612L12.354 19.3541ZM12.3547 19.3534L11.6474 18.6464L11.6454 18.6485L12.3547 19.3534ZM16.647 14.3521C16.4517 14.1569 16.4516 13.8403 16.6469 13.645L18.0614 15.0589C18.647 14.473 18.6468 13.5233 18.0609 12.9376L16.647 14.3521ZM17.3541 14.352C17.1589 14.5473 16.8423 14.5473 16.647 14.3521L18.0609 12.9376C17.475 12.3519 16.5253 12.3521 15.9396 12.938L17.3541 14.352ZM13.2077 18.5L17.3541 14.352L15.9396 12.938L11.7932 17.0861L13.2077 18.5ZM13.5005 17.793L13.5005 4.99847H11.5005L11.5005 17.793H13.5005ZM13.5005 4.99847C13.5005 4.17005 12.8289 3.49847 12.0005 3.49847V5.49847C11.7243 5.49847 11.5005 5.27462 11.5005 4.99847H13.5005ZM12.0005 3.49847C11.1721 3.49847 10.5005 4.17005 10.5005 4.99847H12.5005C12.5005 5.27462 12.2766 5.49847 12.0005 5.49847V3.49847ZM10.5005 4.99847L10.5005 17.7932H12.5005L12.5005 4.99847H10.5005ZM12.2077 17.0862L8.06025 12.9379L6.6459 14.352L10.7933 18.5002L12.2077 17.0862ZM8.06025 12.9379C7.47453 12.3521 6.52478 12.352 5.93893 12.9377L7.35301 14.3521C7.15772 14.5473 6.84114 14.5473 6.6459 14.352L8.06025 12.9379ZM5.93893 12.9377C5.35309 13.5234 5.35299 14.4732 5.93872 15.059L7.35308 13.645C7.54832 13.8402 7.54829 14.1568 7.35301 14.3521L5.93893 12.9377ZM5.93872 15.059L10.9397 20.061L12.3541 18.647L7.35308 13.645L5.93872 15.059ZM10.9398 20.0611L10.9399 20.0612L12.3541 18.647L12.354 18.6469L10.9398 20.0611ZM12.1914 18.5385C12.2518 18.5635 12.3074 18.6003 12.354 18.6468L10.94 20.0613C11.0825 20.2037 11.2485 20.3128 11.4267 20.3865L12.1914 18.5385ZM11.426 20.3862C11.6042 20.4602 11.7989 20.5005 12.0005 20.5005V18.5005C12.0665 18.5005 12.1318 18.5138 12.1922 18.5388L11.426 20.3862ZM12.0005 20.5005C12.202 20.5005 12.3966 20.4602 12.5749 20.3863L11.8089 18.5388C11.8692 18.5138 11.9345 18.5005 12.0005 18.5005V20.5005ZM12.5742 20.3866C12.5823 20.3832 12.5905 20.3798 12.5986 20.3762L11.8013 18.542C11.8041 18.5408 11.8068 18.5396 11.8095 18.5385L12.5742 20.3866ZM11.647 18.6469C11.6914 18.6025 11.7441 18.5669 11.8014 18.542L12.5986 20.3762C12.7677 20.3027 12.9251 20.1971 13.061 20.0612L11.647 18.6469ZM13.0611 20.0612C13.0612 20.0611 13.0625 20.0598 13.064 20.0583L11.6454 18.6485C11.6464 18.6474 11.6473 18.6465 11.6469 18.647L13.0611 20.0612ZM16.6469 13.645L11.6474 18.6464L13.0619 20.0603L18.0614 15.0589L16.6469 13.645Z" fill="#3B3B3B" mask="url(#path-2-inside-1)"/>
</svg>
