<svg width="24" height="24" viewBox="0 0 24 24" fill="none" xmlns="http://www.w3.org/2000/svg">
<path fill-rule="evenodd" clip-rule="evenodd" d="M2.5 5.25C2.5 3.73122 3.73122 2.5 5.25 2.5H7.5C7.77614 2.5 8 2.72386 8 3C8 3.27614 7.77614 3.5 7.5 3.5H5.25C4.2835 3.5 3.5 4.2835 3.5 5.25V7.5C3.5 7.77614 3.27614 8 3 8C2.72386 8 2.5 7.77614 2.5 7.5V5.25ZM3 16C3.27614 16 3.5 16.2239 3.5 16.5V18.75C3.5 19.7165 4.2835 20.5 5.25 20.5H7.5C7.77614 20.5 8 20.7239 8 21C8 21.2761 7.77614 21.5 7.5 21.5H5.25C3.73122 21.5 2.5 20.2688 2.5 18.75V16.5C2.5 16.2239 2.72386 16 3 16ZM21.5 16.5C21.5 16.2239 21.2761 16 21 16C20.7239 16 20.5 16.2239 20.5 16.5V18.75C20.5 19.7165 19.7165 20.5 18.75 20.5H16.5C16.2239 20.5 16 20.7239 16 21C16 21.2761 16.2239 21.5 16.5 21.5H18.75C20.2688 21.5 21.5 20.2688 21.5 18.75V16.5ZM16 3C16 2.72386 16.2239 2.5 16.5 2.5H18.75C20.2688 2.5 21.5 3.73122 21.5 5.25V7.5C21.5 7.77614 21.2761 8 21 8C20.7239 8 20.5 7.77614 20.5 7.5V5.25C20.5 4.2835 19.7165 3.5 18.75 3.5H16.5C16.2239 3.5 16 3.27614 16 3ZM8.02775 8C8.26886 8 8.47011 8.17066 8.51729 8.39777C8.52415 8.43077 8.52775 8.46496 8.52775 8.5V13.5C8.52775 13.535 8.52415 13.5692 8.51729 13.6022C8.47011 13.8293 8.26886 14 8.02775 14C7.75161 14 7.52775 13.7761 7.52775 13.5V8.5C7.52775 8.22386 7.75161 8 8.02775 8ZM10.0139 14C9.77275 14 9.57151 13.8293 9.52432 13.6022C9.51747 13.5692 9.51386 13.535 9.51386 13.5V8.5C9.51386 8.46496 9.51747 8.43077 9.52432 8.39777C9.57151 8.17066 9.77275 8 10.0139 8C10.255 8 10.4562 8.17066 10.5034 8.39777C10.5103 8.43077 10.5139 8.46496 10.5139 8.5V13.5C10.5139 13.535 10.5103 13.5692 10.5034 13.6022C10.4562 13.8293 10.255 14 10.0139 14ZM11.5 8.5C11.5 8.46496 11.5036 8.43077 11.5104 8.39777C11.5576 8.17066 11.7589 8 12 8C12.2411 8 12.4423 8.17066 12.4895 8.39777C12.4964 8.43077 12.5 8.46497 12.5 8.5V13.5C12.5 13.535 12.4964 13.5692 12.4895 13.6022C12.4423 13.8293 12.2411 14 12 14C11.7589 14 11.5576 13.8293 11.5104 13.6022C11.5036 13.5692 11.5 13.535 11.5 13.5V8.5ZM13.4861 8.5C13.4861 8.46497 13.4897 8.43077 13.4965 8.39777C13.5437 8.17066 13.745 8 13.9861 8C14.2272 8 14.4284 8.17066 14.4756 8.39777C14.4825 8.43077 14.4861 8.46496 14.4861 8.5V13.5C14.4861 13.535 14.4825 13.5692 14.4756 13.6022C14.4284 13.8293 14.2272 14 13.9861 14C13.745 14 13.5437 13.8293 13.4965 13.6022C13.4897 13.5692 13.4861 13.535 13.4861 13.5V8.5ZM15.4722 8.5C15.4722 8.46496 15.4758 8.43077 15.4827 8.39777C15.5298 8.17066 15.7311 8 15.9722 8C16.2483 8 16.4722 8.22386 16.4722 8.5V13.5C16.4722 13.7761 16.2483 14 15.9722 14C15.7311 14 15.5298 13.8293 15.4827 13.6022C15.4758 13.5692 15.4722 13.535 15.4722 13.5V8.5ZM5.86108 8C6.13723 8 6.36108 8.22386 6.36108 8.5V15.5C6.36108 15.7761 6.13723 16 5.86108 16C5.58494 16 5.36108 15.7761 5.36108 15.5V8.5C5.36108 8.22386 5.58494 8 5.86108 8ZM18.1389 8C18.415 8 18.6389 8.22386 18.6389 8.5V15.5C18.6389 15.7761 18.415 16 18.1389 16C17.8627 16 17.6389 15.7761 17.6389 15.5V8.5C17.6389 8.22386 17.8627 8 18.1389 8Z" fill="#3B3B3B"/>
</svg>
