<svg width="24" height="24" viewBox="0 0 24 24" fill="none" xmlns="http://www.w3.org/2000/svg">
<path d="M6.28589 13.0001L7.99989 11.2861L9.714 13.0001M8.30396 14.5308C8.71105 15.5103 9.48946 16.2887 10.469 16.6958M10.469 16.6958C9.96696 16.4888 9.532 16.19 9.171 15.829C8.42213 15.0778 8.00112 14.0607 8 13C8 12.761 8.02396 12.525 8.06596 12.292M10.469 16.6958C11.4492 17.1019 12.5507 17.102 13.531 16.6958M17.7 13.0002L15.986 14.7142L14.2719 13.0002M15.6819 11.4696C15.2748 10.4901 14.4964 9.7117 13.5169 9.30461M13.5169 9.30461C14.0189 9.5116 14.4539 9.81037 14.8149 10.1714C15.5638 10.9226 15.9848 11.9397 15.9859 13.0004C15.9859 13.2394 15.9619 13.4754 15.9199 13.7084M13.5169 9.30461C12.5367 8.89848 11.4352 8.8984 10.4549 9.30452M21 9V18C21 19.1046 20.1046 20 19 20H5C3.89543 20 3 19.1046 3 18V9C3 7.89543 3.89543 7 5 7H7L8.462 4.496C8.64128 4.18876 8.97028 3.99989 9.326 4H14.63C14.981 4 15.306 4.184 15.487 4.484L17 7H19C20.1046 7 21 7.89543 21 9Z" stroke="#3B3B3B" stroke-linecap="round" stroke-linejoin="round"/>
</svg>
