<svg width="24" height="24" viewBox="0 0 24 24" fill="none" xmlns="http://www.w3.org/2000/svg">
<path d="M4 13.5V6C4 4.34315 5.34315 3 7 3H17C18.6569 3 20 4.34315 20 6V8M4 16.5V19C4 20.6569 5.34315 22 7 22H17C18.6569 22 20 20.6569 20 19V10" stroke="#3B3B3B" stroke-linejoin="round"/>
<path fill-rule="evenodd" clip-rule="evenodd" d="M16.2556 13.275L18.5835 10.4965L16.2556 13.275Z" fill="#111111"/>
<path fill-rule="evenodd" clip-rule="evenodd" d="M5.5 13.5L7.7547 10.8109L5.5 13.5Z" fill="#111111"/>
<path fill-rule="evenodd" clip-rule="evenodd" d="M10.5 10.5L13.5 13.5L10.5 10.5Z" fill="#111111"/>
<path d="M15.8724 12.9539C15.695 13.1655 15.7229 13.4809 15.9345 13.6582C16.1462 13.8356 16.4616 13.8077 16.6389 13.5961L15.8724 12.9539ZM18.9667 10.8176C19.1441 10.6059 19.1163 10.2905 18.9046 10.1132C18.6929 9.93585 18.3776 9.96369 18.2002 10.1754L18.9667 10.8176ZM5.11686 13.1787C4.93944 13.3903 4.96715 13.7057 5.17875 13.8831C5.39035 14.0605 5.70572 14.0328 5.88314 13.8212L5.11686 13.1787ZM8.13784 11.1321C8.31526 10.9205 8.28756 10.6052 8.07595 10.4277C7.86435 10.2503 7.54898 10.278 7.37156 10.4896L8.13784 11.1321ZM10.8536 10.1464L10.5 9.79285L9.79289 10.5L10.1464 10.8535L10.8536 10.1464ZM13.1464 13.8535L13.5 14.2071L14.2071 13.5L13.8536 13.1464L13.1464 13.8535ZM16.6389 13.5961L18.9667 10.8176L18.2002 10.1754L15.8724 12.9539L16.6389 13.5961ZM5.88314 13.8212L8.13784 11.1321L7.37156 10.4896L5.11686 13.1787L5.88314 13.8212ZM10.1464 10.8535L13.1464 13.8535L13.8536 13.1464L10.8536 10.1464L10.1464 10.8535Z" fill="#3B3B3B"/>
<path d="M20.0017 7.50001L20.0001 7.50001C19.598 7.50001 19.2228 7.65526 18.9387 7.93928C18.3538 8.52562 18.3538 9.47439 18.9387 10.0607C18.9388 10.0609 18.9389 10.061 18.939 10.0611M20.0017 7.50001L21.4151 10.4144C21.0371 10.7922 20.5347 11 20.0001 11C19.4656 11 18.9632 10.7922 18.5852 10.4144L18.939 10.0611M20.0017 7.50001C20.3991 7.49879 20.7805 7.65645 21.061 7.93782L21.061 7.9379C21.6462 8.52476 21.6463 9.47411 21.0613 10.0611M20.0017 7.50001L21.0613 10.0611M18.939 10.0611C19.2231 10.3449 19.5982 10.5 20.0001 10.5C20.4021 10.5 20.7772 10.3449 21.0613 10.0611M18.939 10.0611L21.0613 10.0611M4 13.5L4.0015 13.5C4.39902 13.4988 4.78042 13.6567 5.06064 13.9382L5.06104 13.9386C5.64623 14.5253 5.64633 15.4743 5.06131 16.0611C4.7772 16.3449 4.40206 16.5 4 16.5C3.59796 16.5 3.22283 16.3449 2.93873 16.0611C2.35378 15.4745 2.35376 14.5256 2.93867 13.9389C3.22278 13.6552 3.59793 13.5 4 13.5ZM9.00013 7.50001L9.00149 7.50001C9.399 7.49892 9.78043 7.65659 10.061 7.9379C10.6462 8.52474 10.6463 9.47405 10.0613 10.061C9.77723 10.3448 9.40212 10.5 9.00013 10.5C8.59811 10.5 8.22297 10.3448 7.93886 10.0609C7.35371 9.47454 7.35371 8.52544 7.93888 7.93905C8.22299 7.65518 8.59812 7.50001 9.00013 7.50001ZM13.5 15C13.5 14.2021 14.1433 13.5331 14.9746 13.5C15.5969 13.505 16.15 13.8749 16.3841 14.4302C16.6186 14.9865 16.4911 15.6279 16.0556 16.058C15.7675 16.3408 15.386 16.4978 14.9752 16.5C14.1436 16.4673 13.5 15.798 13.5 15Z" stroke="#3B3B3B"/>
</svg>
