<svg width="24" height="24" viewBox="0 0 24 24" fill="none" xmlns="http://www.w3.org/2000/svg">
<path fill-rule="evenodd" clip-rule="evenodd" d="M20 19H4C2.89543 19 2 18.1046 2 17V7C2 5.89543 2.89543 5 4 5H20C21.1046 5 22 5.89543 22 7V17C22 18.1046 21.1046 19 20 19ZM21.9829 7.004L13.9889 13.26C12.9121 14.103 11.4014 14.1109 10.3159 13.279L2.11792 7M15.4331 12.1299L21.4331 17.5069L15.4331 12.1299ZM8.65601 12.0078L2.65601 17.5018L8.65601 12.0078Z" fill="white"/>
<path d="M22.2911 7.39776C22.5085 7.22757 22.5469 6.91332 22.3767 6.69585C22.2065 6.47839 21.8922 6.44006 21.6748 6.61024L22.2911 7.39776ZM13.9889 13.26L13.6808 12.8662L13.6807 12.8663L13.9889 13.26ZM10.3159 13.279L10.6201 12.8821L10.6199 12.8821L10.3159 13.279ZM2.42195 6.60305C2.20272 6.43514 1.88888 6.47674 1.72097 6.69597C1.55306 6.9152 1.59466 7.22904 1.81389 7.39695L2.42195 6.60305ZM15.7668 11.7575C15.5612 11.5732 15.245 11.5905 15.0607 11.7962C14.8765 12.0018 14.8938 12.3179 15.0994 12.5022L15.7668 11.7575ZM21.0994 17.8792C21.3051 18.0635 21.6212 18.0462 21.8055 17.8406C21.9898 17.6349 21.9724 17.3188 21.7668 17.1345L21.0994 17.8792ZM8.99367 12.3766C9.19733 12.1901 9.21125 11.8738 9.02477 11.6702C8.83828 11.4665 8.52201 11.4526 8.31834 11.6391L8.99367 12.3766ZM2.31834 17.1331C2.11468 17.3195 2.10076 17.6358 2.28725 17.8395C2.47373 18.0431 2.79001 18.0571 2.99367 17.8706L2.31834 17.1331ZM20 18.5H4V19.5H20V18.5ZM4 18.5C3.17157 18.5 2.5 17.8284 2.5 17H1.5C1.5 18.3807 2.61929 19.5 4 19.5V18.5ZM2.5 17V7H1.5V17H2.5ZM2.5 7C2.5 6.17157 3.17157 5.5 4 5.5V4.5C2.61929 4.5 1.5 5.61929 1.5 7H2.5ZM4 5.5H20V4.5H4V5.5ZM20 5.5C20.8284 5.5 21.5 6.17157 21.5 7H22.5C22.5 5.61929 21.3807 4.5 20 4.5V5.5ZM21.5 7V17H22.5V7H21.5ZM21.5 17C21.5 17.8284 20.8284 18.5 20 18.5V19.5C21.3807 19.5 22.5 18.3807 22.5 17H21.5ZM21.6748 6.61024L13.6808 12.8662L14.2971 13.6538L22.2911 7.39776L21.6748 6.61024ZM13.6807 12.8663C12.7834 13.5688 11.5246 13.5753 10.6201 12.8821L10.0118 13.6759C11.2782 14.6464 13.0408 14.6373 14.2972 13.6537L13.6807 12.8663ZM10.6199 12.8821L2.42195 6.60305L1.81389 7.39695L10.0119 13.6759L10.6199 12.8821ZM15.0994 12.5022L21.0994 17.8792L21.7668 17.1345L15.7668 11.7575L15.0994 12.5022ZM8.31834 11.6391L2.31834 17.1331L2.99367 17.8706L8.99367 12.3766L8.31834 11.6391Z" fill="#3B3B3B"/>
</svg>
