<svg width="24" height="24" viewBox="0 0 24 24" fill="none" xmlns="http://www.w3.org/2000/svg">
<path d="M18.9999 10V9C18.9999 7.89543 18.1045 7 16.9999 7H12.5349C12.2006 7.00005 11.8884 6.83307 11.7029 6.555L10.2969 4.446C10.1116 4.16755 9.79938 4.00017 9.46491 4H4.99991C3.89534 4 2.99991 4.89543 2.99991 6V18.853C2.87287 19.2829 3.00814 19.7474 3.34613 20.0419C3.68413 20.3363 4.16278 20.4067 4.57122 20.2219C4.97965 20.0372 5.24287 19.6313 5.24491 19.183L7.57191 11.426C7.82549 10.5796 8.60438 9.99994 9.48791 10H19.3289C19.959 10 20.5521 10.297 20.9298 10.8013C21.3074 11.3056 21.4253 11.9584 21.2479 12.563L19.4869 18.563C19.237 19.4148 18.4556 20.2999 17.5679 20.3H3.99991" stroke="#3B3B3B" stroke-linecap="round" stroke-linejoin="round"/>
</svg>
