<svg width="24" height="24" viewBox="0 0 24 24" fill="none" xmlns="http://www.w3.org/2000/svg">
<path d="M14.3879 4.378C14.5573 4.345 14.7307 4.324 14.9099 4.324C16.4448 4.324 17.689 5.59462 17.689 7.162C17.689 8.72938 16.4448 10 14.9099 10C13.5512 9.99869 12.3937 8.99167 12.1767 7.622M14.3879 4.378C13.0789 4.63279 12.1316 5.80117 12.1307 7.162C12.1307 7.319 12.1532 7.471 12.1767 7.622M14.3879 4.378C14.1709 3.00833 13.0135 2.00131 11.6548 2C10.1199 2 8.87562 3.27062 8.87562 4.838C8.87562 6.40538 10.1199 7.676 11.6548 7.676C11.834 7.676 12.0073 7.655 12.1767 7.622M6.91708 20V14C6.91708 13.4477 6.47864 13 5.93781 13H3.97927C3.43843 13 3 13.4477 3 14V20C3 20.5523 3.43843 21 3.97927 21H5.93781C6.47864 21 6.91708 20.5523 6.91708 20ZM6.91708 20H8.39382C8.71376 19.9998 9.03249 20.0401 9.34273 20.12L11.9378 20.782C12.5005 20.9258 13.0876 20.9402 13.6564 20.824L16.5257 20.238C17.2839 20.0829 17.9803 19.7023 18.5273 19.144L20.5573 17.071C21.1151 16.5104 21.1502 15.6037 20.6374 14.9999C20.1247 14.3962 19.2407 14.3034 18.6184 14.788L16.2525 16.6C15.9136 16.86 15.5014 17 15.0773 17H12.7927H14.2469C15.0666 17 15.7305 16.322 15.7305 15.485V15.182C15.7305 14.487 15.2673 13.881 14.6073 13.713L12.3628 13.14C11.1057 12.8184 9.77415 13.0541 8.69641 13.789L6.91708 15" stroke="#3B3B3B" stroke-linecap="round" stroke-linejoin="round"/>
</svg>
