<svg width="24" height="24" viewBox="0 0 24 24" fill="none" xmlns="http://www.w3.org/2000/svg">
<path d="M14.5168 10.279V10.158C14.5168 9.171 13.7168 8.371 12.7298 8.371H11.2138C10.8 8.4 9.84076 8.44041 9.40425 8.97341C8.96775 9.50642 8.87673 10.243 9.17035 10.8662C9.46396 11.4894 10.0899 11.6882 10.7788 11.891L13.1648 12.489C14.0393 12.709 14.6129 13.5462 14.5023 14.4412C14.3917 15.3362 13.6316 16.0085 12.7298 16.009H11.3358V16.005H11.2138C10.2268 16.005 9.42679 15.205 9.42679 14.218V14.096M11.9718 7.098V7.902M11.9718 17.278V16.474M12 21C16.9706 21 21 16.9706 21 12C21 7.02944 16.9706 3 12 3C7.02944 3 3 7.02944 3 12C3 16.9706 7.02944 21 12 21Z" stroke="#3B3B3B" stroke-linecap="round" stroke-linejoin="round"/>
</svg>
