<svg width="24" height="24" viewBox="0 0 24 24" fill="none" xmlns="http://www.w3.org/2000/svg">
<path fill-rule="evenodd" clip-rule="evenodd" d="M10.1223 7.64179C10.1223 6.36466 9.08702 5.32935 7.80989 5.32935C6.53276 5.32935 5.49745 6.36466 5.49745 7.64179C5.49745 8.91892 6.53276 9.95423 7.80989 9.95423C9.08702 9.95423 10.1223 8.91892 10.1223 7.64179ZM7.80989 4.32935C9.6393 4.32935 11.1223 5.81238 11.1223 7.64179C11.1223 9.4712 9.6393 10.9542 7.80989 10.9542C5.98048 10.9542 4.49745 9.4712 4.49745 7.64179C4.49745 5.81238 5.98048 4.32935 7.80989 4.32935ZM17.9775 8.23192C17.9775 7.28067 17.2064 6.50952 16.2551 6.50952C15.3039 6.50952 14.5327 7.28067 14.5327 8.23192C14.5327 9.18317 15.3039 9.95432 16.2551 9.95432C17.2064 9.95432 17.9775 9.18317 17.9775 8.23192ZM16.2551 5.50952C17.7587 5.50952 18.9775 6.72838 18.9775 8.23192C18.9775 9.73546 17.7587 10.9543 16.2551 10.9543C14.7516 10.9543 13.5327 9.73546 13.5327 8.23192C13.5327 6.72838 14.7516 5.50952 16.2551 5.50952ZM12.1875 14.4107C11.4686 13.6918 10.4935 13.2879 9.47674 13.2879H6.14314C5.12641 13.2879 4.15132 13.6918 3.43238 14.4107C2.71344 15.1297 2.30954 16.1048 2.30954 17.1215V18.2327C2.30954 18.5088 2.5334 18.7327 2.80954 18.7327C3.08569 18.7327 3.30954 18.5088 3.30954 18.2327V17.1215C3.30954 16.37 3.60808 15.6492 4.13948 15.1178C4.67089 14.5864 5.39162 14.2879 6.14314 14.2879H9.47674C10.2283 14.2879 10.949 14.5864 11.4804 15.1178C12.0118 15.6492 12.3103 16.37 12.3103 17.1215V18.2327C12.3103 18.5088 12.5342 18.7327 12.8103 18.7327C13.0865 18.7327 13.3103 18.5088 13.3103 18.2327V17.1215C13.3103 16.1048 12.9064 15.1297 12.1875 14.4107ZM17.3664 13.288C18.3831 13.288 19.3582 13.6919 20.0771 14.4108C20.7961 15.1297 21.2 16.1048 21.2 17.1216V18.2328C21.2 18.5089 20.9761 18.7328 20.7 18.7328C20.4238 18.7328 20.2 18.5089 20.2 18.2328V17.1216C20.2 16.37 19.9014 15.6493 19.37 15.1179C18.8386 14.5865 18.1179 14.288 17.3664 14.288H15.144C14.8678 14.288 14.644 14.0641 14.644 13.788C14.644 13.5118 14.8678 13.288 15.144 13.288H17.3664Z" fill="#3B3B3B"/>
</svg>
