<svg width="24" height="24" viewBox="0 0 24 24" fill="none" xmlns="http://www.w3.org/2000/svg">
<path fill-rule="evenodd" clip-rule="evenodd" d="M8.516 7.01623C8.516 5.09207 10.0758 3.53223 12 3.53223C13.9242 3.53223 15.484 5.09207 15.484 7.01623C15.484 8.94039 13.9242 10.5002 12 10.5002C10.0758 10.5002 8.516 8.94039 8.516 7.01623ZM12 2.53223C9.52356 2.53223 7.516 4.53978 7.516 7.01623C7.516 9.49267 9.52356 11.5002 12 11.5002C14.4764 11.5002 16.484 9.49267 16.484 7.01623C16.484 4.53978 14.4764 2.53223 12 2.53223ZM12 13.5082C10.7644 13.5082 9.53481 13.6485 8.39141 13.9135C8.22807 13.9514 8.06648 13.9918 7.90689 14.0347C6.42845 14.4321 5.09578 15.0509 4.12211 15.872C3.59475 16.3167 3.16458 16.8289 2.88007 17.4018C2.83471 17.4931 2.79306 17.586 2.7553 17.6804C2.68665 17.852 2.63088 18.0286 2.58919 18.2101C2.53081 18.4641 2.5 18.7277 2.5 19.0002V20.0002C2.5 20.8287 3.17157 21.5002 4 21.5002H20C20.8284 21.5002 21.5 20.8287 21.5 20.0002V19.0002C21.5 18.7241 21.2761 18.5002 21 18.5002C20.7239 18.5002 20.5 18.7241 20.5 19.0002V20.0002C20.5 20.2764 20.2761 20.5002 20 20.5002H4C3.72386 20.5002 3.5 20.2764 3.5 20.0002V19.0002C3.5 18.1322 3.94124 17.3327 4.76679 16.6365C5.54372 15.9813 6.63436 15.4439 7.90911 15.0725C7.9941 15.0477 8.0799 15.0237 8.16648 15.0004C9.35483 14.681 10.6716 14.5082 12 14.5082C12.67 14.5082 13.3374 14.5522 13.9874 14.6369C14.0803 14.649 14.1728 14.662 14.2648 14.6757C14.538 14.7166 14.7924 14.5282 14.8333 14.2551C14.8741 13.982 14.6858 13.7275 14.4126 13.6867C13.627 13.5693 12.8151 13.5082 12 13.5082ZM19.5 13C19.5 12.7239 19.2761 12.5 19 12.5C18.7239 12.5 18.5 12.7239 18.5 13V14.5H17C16.7239 14.5 16.5 14.7239 16.5 15C16.5 15.2761 16.7239 15.5 17 15.5H18.5V17C18.5 17.2761 18.7239 17.5 19 17.5C19.2761 17.5 19.5 17.2761 19.5 17V15.5H21C21.2761 15.5 21.5 15.2761 21.5 15C21.5 14.7239 21.2761 14.5 21 14.5H19.5V13Z" fill="#3B3B3B"/>
</svg>
