<svg width="24" height="24" viewBox="0 0 24 24" fill="none" xmlns="http://www.w3.org/2000/svg">
<path fill-rule="evenodd" clip-rule="evenodd" d="M8.97807 12C8.97807 10.3431 10.3212 9 11.9781 9C13.6349 9 14.9781 10.3431 14.9781 12" stroke="#111111" stroke-linecap="round" stroke-linejoin="round"/>
<path fill-rule="evenodd" clip-rule="evenodd" d="M8.97807 12C8.97807 10.3431 10.3212 9 11.9781 9C13.6349 9 14.9781 10.3431 14.9781 12" stroke="#111111" stroke-linecap="round" stroke-linejoin="round"/>
<path fill-rule="evenodd" clip-rule="evenodd" d="M14.9781 12C14.9781 13.6569 13.6349 15 11.9781 15C10.3212 15 8.97807 13.6569 8.97807 12" stroke="#111111" stroke-linecap="round" stroke-linejoin="round"/>
<path fill-rule="evenodd" clip-rule="evenodd" d="M19.4781 12C19.4781 11.67 19.4481 11.34 19.4081 11.02L21.1721 9.64C21.564 9.33374 21.6702 8.78548 21.4211 8.355L19.8521 5.641C19.6037 5.2115 19.0774 5.02994 18.6171 5.215L17.0411 5.848C16.7269 5.9685 16.3735 5.92582 16.0971 5.734C15.8541 5.57176 15.6013 5.42481 15.3401 5.294C15.0371 5.14995 14.8244 4.86617 14.7711 4.535L14.5301 2.855C14.4595 2.36422 14.0389 1.99992 13.5431 2H10.4121C9.91629 2.00049 9.49619 2.3652 9.42607 2.856L9.18407 4.537C9.13106 4.86717 8.91958 5.15039 8.61807 5.295C8.35635 5.42814 8.10259 5.57639 7.85807 5.739C7.58237 5.92929 7.23026 5.97049 6.91807 5.849L5.33807 5.215C4.87774 5.0304 4.3517 5.21185 4.10307 5.641L2.53407 8.356C2.28574 8.78649 2.39236 9.33413 2.78407 9.64L4.54807 11.02C4.50807 11.34 4.47807 11.67 4.47807 12" stroke="#111111" stroke-linecap="round" stroke-linejoin="round"/>
<path fill-rule="evenodd" clip-rule="evenodd" d="M19.4781 12C19.4781 12.33 19.4481 12.66 19.4081 12.98L21.1721 14.36C21.564 14.6663 21.6702 15.2145 21.4211 15.645L19.8521 18.359C19.6037 18.7885 19.0774 18.9701 18.6171 18.785L17.0411 18.152C16.7269 18.0315 16.3735 18.0742 16.0971 18.266C15.8541 18.4282 15.6013 18.5752 15.3401 18.706C15.0371 18.85 14.8244 19.1338 14.7711 19.465L14.5301 21.145C14.4595 21.6358 14.0389 22.0001 13.5431 22H10.4121C9.91591 22 9.49524 21.6352 9.42507 21.144L9.18407 19.462C9.13076 19.1322 8.91932 18.8494 8.61807 18.705C8.35621 18.5717 8.10244 18.4231 7.85807 18.26C7.58212 18.0704 7.23035 18.0292 6.91807 18.15L5.33807 18.784C4.87774 18.9686 4.3517 18.7871 4.10307 18.358L2.53407 15.644C2.28492 15.2135 2.39116 14.6653 2.78307 14.359L4.54707 12.979C4.50431 12.6544 4.48126 12.3274 4.47807 12" stroke="#111111" stroke-linecap="round" stroke-linejoin="round"/>
</svg>
