<svg width="120" height="32" viewBox="0 0 120 32" fill="none" xmlns="http://www.w3.org/2000/svg">
<path fill-rule="evenodd" clip-rule="evenodd" d="M119.978 16.6386V26.4704C119.978 26.901 119.629 27.25 119.198 27.25H116.267C115.836 27.25 115.487 26.901 115.487 26.4704V24.9239C113.661 26.28 111.408 27.0808 108.969 27.0808C102.877 27.0808 97.9387 22.0819 97.9387 15.9154C97.9387 9.74893 102.877 4.75 108.969 4.75C111.408 4.75 113.661 5.55087 115.487 6.90691V5.52957C115.487 5.09902 115.836 4.75 116.267 4.75H119.198C119.629 4.75 119.978 5.09902 119.978 5.52957V15.1999C119.992 15.4365 120 15.6751 120 15.9154C120 16.1559 119.992 16.3947 119.978 16.6314L119.978 16.6386ZM90.0279 26.242C90.0279 26.5496 89.7786 26.7989 89.471 26.7989H86.0164C85.7089 26.7989 85.4596 26.5496 85.4596 26.242V5.70157C85.4596 5.39404 85.7089 5.14474 86.0164 5.14474H89.471C89.7786 5.14474 90.0279 5.39404 90.0279 5.70157V6.86581C91.7253 5.62169 93.7865 4.8549 96.0194 4.75999C96.0258 4.75972 96.0322 4.75958 96.0386 4.75958C96.288 4.75958 96.4902 4.96179 96.4902 5.21123V9.01876C96.4903 9.2128 96.3385 9.37292 96.1447 9.38325C92.7363 9.56501 90.0279 12.4201 90.0279 15.9154V26.242ZM58.1775 7.41029C58.18 7.41237 58.1823 7.41449 58.1847 7.41663C58.3468 7.56333 58.3593 7.81366 58.2126 7.97574L55.7963 10.6458C55.5784 10.8865 55.2115 10.9181 54.9557 10.7181C54.9498 10.7135 54.944 10.7091 54.9384 10.7047C53.827 9.8484 52.4677 9.37406 51.0306 9.37406C47.4616 9.37406 44.5682 12.3027 44.5682 15.9154C44.5682 19.5281 47.4616 22.4568 51.0306 22.4568C52.3115 22.4568 53.5311 22.0806 54.5714 21.3889L54.5763 21.3856C54.8371 21.2114 55.1882 21.2682 55.3808 21.5157L57.534 24.2831C57.5378 24.2879 57.5414 24.2928 57.545 24.2977C57.7101 24.5264 57.6586 24.8456 57.4299 25.0107C55.5796 26.3468 53.3578 27.0808 51.0306 27.0808C44.9386 27.0808 40 22.0819 40 15.9154C40 9.74893 44.9386 4.75 51.0306 4.75C53.687 4.75 56.2012 5.70697 58.1775 7.41029ZM71.0863 27.0808C64.9943 27.0808 60.0557 22.0819 60.0557 15.9154C60.0557 9.74893 64.9943 4.75 71.0863 4.75C77.1784 4.75 82.117 9.74893 82.117 15.9154C82.117 22.0819 77.1784 27.0808 71.0863 27.0808ZM71.0863 22.4568C74.6554 22.4568 77.5487 19.5281 77.5487 15.9154C77.5487 12.3027 74.6554 9.37406 71.0863 9.37406C67.5173 9.37406 64.624 12.3027 64.624 15.9154C64.624 19.5281 67.5173 22.4568 71.0863 22.4568ZM108.969 22.4568C112.538 22.4568 115.432 19.5281 115.432 15.9154C115.432 12.3027 112.538 9.37406 108.969 9.37406C105.4 9.37406 102.507 12.3027 102.507 15.9154C102.507 19.5281 105.4 22.4568 108.969 22.4568Z" fill="white"/>
<path fill-rule="evenodd" clip-rule="evenodd" d="M14.1106 1.00009C13.5313 1.00716 12.8324 1.09893 12.4786 1.15997C10.3605 1.52486 8.31733 2.3454 6.53878 3.5637C3.83223 5.41752 1.74983 8.18608 0.731066 11.3066C-0.467493 14.9781 -0.180323 19.0923 1.50437 22.5491C3.10484 25.8332 5.93458 28.4921 9.3113 29.8802C12.1516 31.0476 15.3305 31.306 18.3062 30.6376C21.9286 29.8239 25.1724 27.629 27.292 24.6192C28.8801 22.3641 29.8206 19.6663 29.9985 16.9117C30.0125 16.6746 29.9284 16.4422 29.7658 16.2691C29.6034 16.0961 29.3767 15.9976 29.1394 15.997L28.9814 15.9967C27.9315 15.9942 26.3355 15.9905 25.3715 15.9903C24.9222 15.9893 24.5477 16.3345 24.512 16.7826C24.4689 17.2951 24.3854 17.8029 24.2603 18.3014C23.6812 20.6111 22.1949 22.6815 20.1929 23.9833C18.1552 25.3082 15.6145 25.801 13.2317 25.3512C10.8531 24.9022 8.70066 23.516 7.28998 21.5745C6.11361 19.9555 5.46955 17.9553 5.47269 15.9576C5.47681 13.3611 6.58572 10.8109 8.46344 9.03549C10.0269 7.55729 12.0857 6.64186 14.237 6.46186C14.6835 6.42431 15.0269 6.05079 15.0273 5.60233L15.0275 5.33957C15.0283 4.32156 15.0295 2.81888 15.0289 1.86074C15.0292 1.6222 14.9305 1.39412 14.7564 1.23105C14.5824 1.06787 14.3498 0.997166 14.1106 1.00009ZM29.9808 5.83949C29.9808 3.18649 27.8286 1.03255 25.1776 1.03255C22.5266 1.03255 20.3743 3.18649 20.3743 5.83949C20.3743 8.49259 22.5266 10.6465 25.1776 10.6465C27.8286 10.6465 29.9808 8.49259 29.9808 5.83949Z" fill="#FE3E6D"/>
</svg>
